<?xml version="1.0" encoding="UTF-8" standalone="no"?>
<!DOCTYPE svg PUBLIC "-//W3C//DTD SVG 1.1//EN"
 "http://www.w3.org/Graphics/SVG/1.1/DTD/svg11.dtd">
<!-- Generated by graphviz version 14.1.2 (20260124.0452)
 -->
<!-- Title: agent_pipeline Pages: 1 -->
<svg width="739pt" height="654pt"
 viewBox="0.00 0.00 739.00 654.00" xmlns="http://www.w3.org/2000/svg" xmlns:xlink="http://www.w3.org/1999/xlink">
<g id="graph0" class="graph" transform="scale(1 1) rotate(0) translate(50.4 603.9)">
<title>agent_pipeline</title>
<polygon fill="#0f172a" stroke="none" points="-50.4,50.4 -50.4,-603.9 688.65,-603.9 688.65,50.4 -50.4,50.4"/>
<text xml:space="preserve" text-anchor="middle" x="319.12" y="-537.15" font-family="Menlo" font-size="13.00" fill="#eaeaea">AI Agent Skill Pipeline</text>
<g id="clust1" class="cluster">
<title>cluster_media</title>
<polygon fill="#0f172a" stroke="#94a3b8" stroke-dasharray="5,2" points="332.25,-8 332.25,-271 466.75,-271 466.75,-8 332.25,-8"/>
<text xml:space="preserve" text-anchor="middle" x="399.5" y="-254.65" font-family="Menlo" font-size="13.00" fill="#94a3b8">Media</text>
</g>
<g id="clust2" class="cluster">
<title>cluster_motion</title>
<polygon fill="#0f172a" stroke="#94a3b8" stroke-dasharray="5,2" points="141.5,-430 141.5,-521 466.75,-521 466.75,-430 141.5,-430"/>
<text xml:space="preserve" text-anchor="middle" x="304.12" y="-504.65" font-family="Menlo" font-size="13.00" fill="#94a3b8">Motion</text>
</g>
<g id="clust3" class="cluster">
<title>cluster_audio</title>
<polygon fill="#0f172a" stroke="#94a3b8" stroke-dasharray="5,2" points="130.25,-245 130.25,-422 287.25,-422 287.25,-245 130.25,-245"/>
<text xml:space="preserve" text-anchor="middle" x="208.75" y="-405.65" font-family="Menlo" font-size="13.00" fill="#94a3b8">Audio</text>
</g>
<!-- BRIEF -->
<g id="node1" class="node">
<title>BRIEF</title>
<path fill="#12141a" stroke="#22d3ee" stroke-width="2.5" d="M65.25,-257.43C65.25,-257.43 12,-257.43 12,-257.43 6,-257.43 0,-251.43 0,-245.43 0,-245.43 0,-230.57 0,-230.57 0,-224.57 6,-218.57 12,-218.57 12,-218.57 65.25,-218.57 65.25,-218.57 71.25,-218.57 77.25,-224.57 77.25,-230.57 77.25,-230.57 77.25,-245.43 77.25,-245.43 77.25,-251.43 71.25,-257.43 65.25,-257.43"/>
<text xml:space="preserve" text-anchor="middle" x="38.62" y="-233.32" font-family="Menlo" font-size="14.00" fill="#eaeaea">Brief</text>
</g>
<!-- IMG -->
<g id="node2" class="node">
<title>IMG</title>
<path fill="#12141a" stroke="#fbbf24" stroke-width="2" d="M446.75,-238.05C446.75,-238.05 352.25,-238.05 352.25,-238.05 346.25,-238.05 340.25,-232.05 340.25,-226.05 340.25,-226.05 340.25,-199.95 340.25,-199.95 340.25,-193.95 346.25,-187.95 352.25,-187.95 352.25,-187.95 446.75,-187.95 446.75,-187.95 452.75,-187.95 458.75,-193.95 458.75,-199.95 458.75,-199.95 458.75,-226.05 458.75,-226.05 458.75,-232.05 452.75,-238.05 446.75,-238.05"/>
<text xml:space="preserve" text-anchor="middle" x="399.5" y="-215.85" font-family="Menlo" font-size="12.00" fill="#eaeaea">cover&#45;image</text>
<text xml:space="preserve" text-anchor="middle" x="399.5" y="-201.6" font-family="Menlo" font-size="12.00" fill="#eaeaea">still</text>
</g>
<!-- BRIEF&#45;&gt;IMG -->
<g id="edge1" class="edge">
<title>BRIEF&#45;&gt;IMG</title>
<path fill="none" stroke="#94a3b8" d="M78.28,-228.31C78.28,-228.31 329.42,-228.31 329.42,-228.31"/>
<polygon fill="#94a3b8" stroke="#94a3b8" points="329.42,-231.29 337.92,-228.31 329.42,-225.34 329.42,-231.29"/>
</g>
<!-- CARDS -->
<g id="node3" class="node">
<title>CARDS</title>
<path fill="#12141a" stroke="#fbbf24" stroke-width="2" d="M446.75,-152.05C446.75,-152.05 352.25,-152.05 352.25,-152.05 346.25,-152.05 340.25,-146.05 340.25,-140.05 340.25,-140.05 340.25,-113.95 340.25,-113.95 340.25,-107.95 346.25,-101.95 352.25,-101.95 352.25,-101.95 446.75,-101.95 446.75,-101.95 452.75,-101.95 458.75,-107.95 458.75,-113.95 458.75,-113.95 458.75,-140.05 458.75,-140.05 458.75,-146.05 452.75,-152.05 446.75,-152.05"/>
<text xml:space="preserve" text-anchor="middle" x="399.5" y="-129.85" font-family="Menlo" font-size="12.00" fill="#eaeaea">image&#45;cards</text>
<text xml:space="preserve" text-anchor="middle" x="399.5" y="-115.6" font-family="Menlo" font-size="12.00" fill="#eaeaea">sequence</text>
</g>
<!-- BRIEF&#45;&gt;CARDS -->
<g id="edge2" class="edge">
<title>BRIEF&#45;&gt;CARDS</title>
<path fill="none" stroke="#94a3b8" d="M51.25,-217.38C51.25,-185.28 51.25,-127 51.25,-127 51.25,-127 329.62,-127 329.62,-127"/>
<polygon fill="#94a3b8" stroke="#94a3b8" points="329.62,-129.98 338.12,-127 329.62,-124.03 329.62,-129.98"/>
</g>
<!-- DIAG -->
<g id="node4" class="node">
<title>DIAG</title>
<path fill="#12141a" stroke="#fbbf24" stroke-width="2" d="M431.75,-66.05C431.75,-66.05 367.25,-66.05 367.25,-66.05 361.25,-66.05 355.25,-60.05 355.25,-54.05 355.25,-54.05 355.25,-27.95 355.25,-27.95 355.25,-21.95 361.25,-15.95 367.25,-15.95 367.25,-15.95 431.75,-15.95 431.75,-15.95 437.75,-15.95 443.75,-21.95 443.75,-27.95 443.75,-27.95 443.75,-54.05 443.75,-54.05 443.75,-60.05 437.75,-66.05 431.75,-66.05"/>
<text xml:space="preserve" text-anchor="middle" x="399.5" y="-43.85" font-family="Menlo" font-size="12.00" fill="#eaeaea">diagram</text>
<text xml:space="preserve" text-anchor="middle" x="399.5" y="-29.6" font-family="Menlo" font-size="12.00" fill="#eaeaea">SVG</text>
</g>
<!-- BRIEF&#45;&gt;DIAG -->
<g id="edge3" class="edge">
<title>BRIEF&#45;&gt;DIAG</title>
<path fill="none" stroke="#94a3b8" d="M25.25,-217.66C25.25,-167.33 25.25,-41 25.25,-41 25.25,-41 344.34,-41 344.34,-41"/>
<polygon fill="#94a3b8" stroke="#94a3b8" points="344.34,-43.98 352.84,-41 344.34,-38.03 344.34,-43.98"/>
</g>
<!-- MANIM -->
<g id="node5" class="node">
<title>MANIM</title>
<path fill="#12141a" stroke="#fb7185" stroke-width="2" d="M256,-488.05C256,-488.05 161.5,-488.05 161.5,-488.05 155.5,-488.05 149.5,-482.05 149.5,-476.05 149.5,-476.05 149.5,-449.95 149.5,-449.95 149.5,-443.95 155.5,-437.95 161.5,-437.95 161.5,-437.95 256,-437.95 256,-437.95 262,-437.95 268,-443.95 268,-449.95 268,-449.95 268,-476.05 268,-476.05 268,-482.05 262,-488.05 256,-488.05"/>
<text xml:space="preserve" text-anchor="middle" x="208.75" y="-465.85" font-family="Menlo" font-size="12.00" fill="#eaeaea">manim&#45;video</text>
<text xml:space="preserve" text-anchor="middle" x="208.75" y="-451.6" font-family="Menlo" font-size="12.00" fill="#eaeaea">scenes</text>
</g>
<!-- BRIEF&#45;&gt;MANIM -->
<g id="edge4" class="edge">
<title>BRIEF&#45;&gt;MANIM</title>
<path fill="none" stroke="#94a3b8" d="M19.25,-258.36C19.25,-313.75 19.25,-463 19.25,-463 19.25,-463 138.52,-463 138.52,-463"/>
<polygon fill="#94a3b8" stroke="#94a3b8" points="138.52,-465.98 147.02,-463 138.52,-460.03 138.52,-465.98"/>
</g>
<!-- MUSIC -->
<g id="node7" class="node">
<title>MUSIC</title>
<path fill="#12141a" stroke="#34d399" stroke-width="2" d="M267.25,-303.05C267.25,-303.05 150.25,-303.05 150.25,-303.05 144.25,-303.05 138.25,-297.05 138.25,-291.05 138.25,-291.05 138.25,-264.95 138.25,-264.95 138.25,-258.95 144.25,-252.95 150.25,-252.95 150.25,-252.95 267.25,-252.95 267.25,-252.95 273.25,-252.95 279.25,-258.95 279.25,-264.95 279.25,-264.95 279.25,-291.05 279.25,-291.05 279.25,-297.05 273.25,-303.05 267.25,-303.05"/>
<text xml:space="preserve" text-anchor="middle" x="208.75" y="-280.85" font-family="Menlo" font-size="12.00" fill="#eaeaea">music&#45;creation</text>
<text xml:space="preserve" text-anchor="middle" x="208.75" y="-266.6" font-family="Menlo" font-size="12.00" fill="#eaeaea">track</text>
</g>
<!-- BRIEF&#45;&gt;MUSIC -->
<g id="edge5" class="edge">
<title>BRIEF&#45;&gt;MUSIC</title>
<path fill="none" stroke="#94a3b8" d="M58.25,-258.62C58.25,-269.35 58.25,-280.24 58.25,-280.24 58.25,-280.24 127.45,-280.24 127.45,-280.24"/>
<polygon fill="#94a3b8" stroke="#94a3b8" points="127.45,-283.21 135.95,-280.24 127.45,-277.26 127.45,-283.21"/>
</g>
<!-- TTS -->
<g id="node8" class="node">
<title>TTS</title>
<path fill="#12141a" stroke="#34d399" stroke-width="2" d="M248.5,-389.05C248.5,-389.05 169,-389.05 169,-389.05 163,-389.05 157,-383.05 157,-377.05 157,-377.05 157,-350.95 157,-350.95 157,-344.95 163,-338.95 169,-338.95 169,-338.95 248.5,-338.95 248.5,-338.95 254.5,-338.95 260.5,-344.95 260.5,-350.95 260.5,-350.95 260.5,-377.05 260.5,-377.05 260.5,-383.05 254.5,-389.05 248.5,-389.05"/>
<text xml:space="preserve" text-anchor="middle" x="208.75" y="-366.85" font-family="Menlo" font-size="12.00" fill="#eaeaea">narration</text>
<text xml:space="preserve" text-anchor="middle" x="208.75" y="-352.6" font-family="Menlo" font-size="12.00" fill="#eaeaea">voiceover</text>
</g>
<!-- BRIEF&#45;&gt;TTS -->
<g id="edge6" class="edge">
<title>BRIEF&#45;&gt;TTS</title>
<path fill="none" stroke="#94a3b8" d="M38.25,-258.52C38.25,-294.23 38.25,-364 38.25,-364 38.25,-364 146.19,-364 146.19,-364"/>
<polygon fill="#94a3b8" stroke="#94a3b8" points="146.19,-366.98 154.69,-364 146.19,-361.03 146.19,-366.98"/>
</g>
<!-- PACK -->
<g id="node9" class="node">
<title>PACK</title>
<path fill="#12141a" stroke="#34d399" stroke-width="2.5" d="M626.25,-189.43C626.25,-189.43 531.75,-189.43 531.75,-189.43 525.75,-189.43 519.75,-183.43 519.75,-177.43 519.75,-177.43 519.75,-162.57 519.75,-162.57 519.75,-156.57 525.75,-150.57 531.75,-150.57 531.75,-150.57 626.25,-150.57 626.25,-150.57 632.25,-150.57 638.25,-156.57 638.25,-162.57 638.25,-162.57 638.25,-177.43 638.25,-177.43 638.25,-183.43 632.25,-189.43 626.25,-189.43"/>
<text xml:space="preserve" text-anchor="middle" x="579" y="-165.32" font-family="Menlo" font-size="14.00" fill="#eaeaea">Media Pack</text>
</g>
<!-- IMG&#45;&gt;PACK -->
<g id="edge10" class="edge">
<title>IMG&#45;&gt;PACK</title>
<path fill="none" stroke="#94a3b8" d="M379.25,-187.29C379.25,-180.97 379.25,-175.98 379.25,-175.98 379.25,-175.98 508.51,-175.98 508.51,-175.98"/>
<polygon fill="#94a3b8" stroke="#94a3b8" points="508.51,-178.96 517.01,-175.98 508.51,-173.01 508.51,-178.96"/>
</g>
<!-- CARDS&#45;&gt;PACK -->
<g id="edge11" class="edge">
<title>CARDS&#45;&gt;PACK</title>
<path fill="none" stroke="#94a3b8" d="M419.25,-152.71C419.25,-159.03 419.25,-164.02 419.25,-164.02 419.25,-164.02 508.59,-164.02 508.59,-164.02"/>
<polygon fill="#94a3b8" stroke="#94a3b8" points="508.59,-166.99 517.09,-164.02 508.59,-161.04 508.59,-166.99"/>
</g>
<!-- DIAG&#45;&gt;PACK -->
<g id="edge12" class="edge">
<title>DIAG&#45;&gt;PACK</title>
<path fill="none" stroke="#94a3b8" d="M444.39,-41C497.64,-41 579.25,-41 579.25,-41 579.25,-41 579.25,-139.55 579.25,-139.55"/>
<polygon fill="#94a3b8" stroke="#94a3b8" points="576.28,-139.55 579.25,-148.05 582.23,-139.55 576.28,-139.55"/>
</g>
<!-- MUX -->
<g id="node6" class="node">
<title>MUX</title>
<path fill="#12141a" stroke="#fb7185" stroke-width="2" d="M446.75,-488.05C446.75,-488.05 352.25,-488.05 352.25,-488.05 346.25,-488.05 340.25,-482.05 340.25,-476.05 340.25,-476.05 340.25,-449.95 340.25,-449.95 340.25,-443.95 346.25,-437.95 352.25,-437.95 352.25,-437.95 446.75,-437.95 446.75,-437.95 452.75,-437.95 458.75,-443.95 458.75,-449.95 458.75,-449.95 458.75,-476.05 458.75,-476.05 458.75,-482.05 452.75,-488.05 446.75,-488.05"/>
<text xml:space="preserve" text-anchor="middle" x="399.5" y="-465.85" font-family="Menlo" font-size="12.00" fill="#eaeaea">motion&#45;edit</text>
<text xml:space="preserve" text-anchor="middle" x="399.5" y="-451.6" font-family="Menlo" font-size="12.00" fill="#eaeaea">final cut</text>
</g>
<!-- MANIM&#45;&gt;MUX -->
<g id="edge7" class="edge">
<title>MANIM&#45;&gt;MUX</title>
<path fill="none" stroke="#94a3b8" d="M268.84,-471.35C268.84,-471.35 329.37,-471.35 329.37,-471.35"/>
<polygon fill="#94a3b8" stroke="#94a3b8" points="329.37,-474.33 337.87,-471.35 329.37,-468.38 329.37,-474.33"/>
</g>
<!-- MUX&#45;&gt;PACK -->
<g id="edge13" class="edge">
<title>MUX&#45;&gt;PACK</title>
<path fill="none" stroke="#94a3b8" d="M459.6,-463C511.86,-463 579.25,-463 579.25,-463 579.25,-463 579.25,-200.62 579.25,-200.62"/>
<polygon fill="#94a3b8" stroke="#94a3b8" points="582.23,-200.62 579.25,-192.12 576.28,-200.62 582.23,-200.62"/>
</g>
<!-- MUSIC&#45;&gt;MUX -->
<g id="edge8" class="edge">
<title>MUSIC&#45;&gt;MUX</title>
<path fill="none" stroke="#94a3b8" d="M273.25,-303.69C273.25,-352.68 273.25,-454.65 273.25,-454.65 273.25,-454.65 329.32,-454.65 329.32,-454.65"/>
<polygon fill="#94a3b8" stroke="#94a3b8" points="329.32,-457.63 337.82,-454.65 329.32,-451.68 329.32,-457.63"/>
</g>
<!-- TTS&#45;&gt;MUX -->
<g id="edge9" class="edge">
<title>TTS&#45;&gt;MUX</title>
<path fill="none" stroke="#94a3b8" d="M261.31,-364C317.7,-364 399.25,-364 399.25,-364 399.25,-364 399.25,-426.98 399.25,-426.98"/>
<polygon fill="#94a3b8" stroke="#94a3b8" points="396.28,-426.98 399.25,-435.48 402.23,-426.98 396.28,-426.98"/>
</g>
</g>
</svg>
